<?xml version="1.0" standalone="no"?>
<!DOCTYPE svg PUBLIC "-//W3C//DTD SVG 20010904//EN"
 "http://www.w3.org/TR/2001/REC-SVG-20010904/DTD/svg10.dtd">
<svg version="1.0" xmlns="http://www.w3.org/2000/svg"
 width="880.000000pt" height="833.000000pt" viewBox="0 0 880.000000 833.000000"
 preserveAspectRatio="xMidYMid meet">
<metadata>
Created by potrace 1.16, written by Peter Selinger 2001-2019
</metadata>
<g transform="translate(0.000000,833.000000) scale(0.100000,-0.100000)"
fill="#000000" stroke="none">
<path d="M4100 8320 c-423 -32 -820 -112 -1193 -240 -1780 -609 -2953 -2228
-2904 -4010 10 -359 55 -658 147 -982 349 -1222 1242 -2208 2475 -2733 154
-66 493 -177 665 -219 755 -182 1498 -179 2250 9 774 194 1513 611 2055 1159
684 691 1081 1519 1187 2471 17 155 17 633 0 780 -100 858 -419 1595 -967
2233 -735 855 -1773 1390 -2946 1517 -172 19 -609 27 -769 15z m3116 -1697
c113 -38 196 -112 248 -223 27 -58 30 -75 31 -160 0 -90 -2 -99 -38 -172 -44
-90 -101 -146 -197 -192 -59 -28 -74 -31 -160 -30 -73 0 -108 5 -151 22 -81
32 -170 117 -211 200 -31 62 -33 73 -33 172 0 98 2 110 32 170 33 68 107 151
158 177 102 54 227 68 321 36z m-1671 -848 c183 -24 475 -93 475 -113 0 -6
-133 -553 -136 -560 -1 -1 -26 7 -55 19 -87 34 -306 87 -411 98 -233 26 -466
8 -638 -49 -393 -131 -644 -438 -715 -874 -43 -262 -23 -559 52 -784 111 -332
346 -559 668 -643 158 -42 295 -46 563 -17 l112 12 0 428 0 428 -260 0 -260 0
0 265 0 265 595 0 595 0 0 -894 0 -893 -92 -36 c-122 -46 -344 -101 -521 -129
-121 -19 -183 -22 -427 -22 -256 -1 -298 2 -415 23 -193 34 -341 82 -500 161
-167 83 -280 165 -401 292 -303 318 -468 770 -466 1278 1 435 126 818 361
1115 96 121 270 274 411 362 254 158 577 257 935 287 96 8 411 -3 530 -19z
m-2728 -1287 c-4 -1404 -1 -1335 -63 -1538 -141 -460 -482 -680 -1054 -680
-152 0 -260 10 -395 36 -115 22 -115 22 -115 52 0 33 61 525 66 531 1 2 49 -8
106 -23 183 -46 351 -44 484 5 43 16 75 39 119 83 67 67 95 120 128 235 22 76
22 81 24 1316 2 682 5 1245 8 1252 3 9 90 12 350 13 l346 0 -4 -1282z m4633
-518 l0 -1640 -350 0 -350 0 0 1640 0 1640 350 0 350 0 0 -1640z"/>
</g>
</svg>
