<?xml version="1.0" standalone="no"?>
<!DOCTYPE svg PUBLIC "-//W3C//DTD SVG 20010904//EN"
 "http://www.w3.org/TR/2001/REC-SVG-20010904/DTD/svg10.dtd">
<svg version="1.0" xmlns="http://www.w3.org/2000/svg"
 width="840.000000pt" height="880.000000pt" viewBox="0 0 840.000000 880.000000"
 preserveAspectRatio="xMidYMid meet">
<metadata>
Created by potrace 1.16, written by Peter Selinger 2001-2019
</metadata>
<g transform="translate(0.000000,880.000000) scale(0.100000,-0.100000)"
fill="#000000" stroke="none">
<path d="M3895 8389 c-823 -69 -1562 -362 -2207 -877 -172 -137 -465 -430
-602 -602 -131 -164 -289 -400 -387 -575 -578 -1038 -658 -2310 -214 -3415
443 -1104 1340 -1948 2465 -2320 1050 -347 2223 -237 3185 299 326 182 618
403 891 675 398 399 685 834 892 1351 532 1336 303 2849 -604 3985 -140 174
-432 467 -604 604 -611 487 -1301 774 -2070 862 -155 18 -598 26 -745 13z
m627 -1578 c492 -105 905 -431 1117 -882 56 -120 91 -226 123 -371 32 -150 32
-456 -1 -608 -33 -154 -84 -298 -152 -429 -218 -421 -607 -716 -1086 -824 -85
-18 -128 -22 -318 -22 -194 0 -232 3 -323 23 -495 111 -886 414 -1102 857 -97
197 -143 364 -159 574 -36 489 136 938 490 1276 241 229 552 379 884 424 116
16 415 5 527 -18z m-1554 -3291 c78 -48 249 -126 361 -165 673 -232 1513 -173
2073 146 l87 50 308 -3 308 -3 75 -36 c98 -47 195 -126 361 -295 133 -137 213
-235 400 -489 140 -192 196 -277 240 -369 95 -197 60 -315 -111 -373 -53 -17
-162 -18 -2825 -21 -1905 -2 -2792 1 -2839 8 -88 13 -155 42 -195 84 -61 63
-60 152 4 280 59 120 442 642 600 820 107 119 284 280 360 325 112 68 128 70
452 71 l293 0 48 -30z"/>
</g>
</svg>
